<?xml version="1.0" standalone="no"?>
<!DOCTYPE svg PUBLIC "-//W3C//DTD SVG 20010904//EN"
 "http://www.w3.org/TR/2001/REC-SVG-20010904/DTD/svg10.dtd">
<svg version="1.0" xmlns="http://www.w3.org/2000/svg"
 width="260.000000pt" height="260.000000pt" viewBox="0 0 260.000000 260.000000"
 preserveAspectRatio="xMidYMid meet">
<metadata>
Created by potrace 1.14, written by Peter Selinger 2001-2017
</metadata>
<g transform="translate(0.000000,260.000000) scale(0.100000,-0.100000)"
fill="#000000" stroke="none">
<path d="M1062 2388 c-298 -59 -540 -218 -716 -472 -75 -107 -151 -302 -174
-446 -14 -87 -6 -320 13 -405 109 -482 500 -824 993 -870 28 -3 52 -2 53 2 4
30 3 185 -1 188 -3 1 -31 6 -63 9 -289 34 -544 202 -692 459 -15 26 -26 50
-24 51 5 5 144 85 509 296 146 84 267 154 269 156 2 2 5 55 5 118 l1 114 -35
-19 c-19 -11 -68 -38 -108 -62 -64 -37 -393 -228 -461 -267 -14 -8 -69 -39
-121 -69 -52 -30 -102 -60 -112 -68 -14 -13 -17 -10 -23 29 -4 24 -9 52 -11
63 -7 36 -6 149 1 210 24 199 116 392 257 535 138 141 346 242 548 265 30 4
57 9 59 11 2 2 5 46 5 98 l1 94 -43 -2 c-23 0 -82 -9 -130 -18z"/>
<path d="M1368 2397 c-3 -10 -2 -2153 1 -2195 1 -9 14 -11 49 -7 26 3 67 8 92
11 24 3 47 7 50 9 3 2 5 445 5 984 0 540 2 981 5 981 15 0 130 -45 179 -70
l57 -28 -1 -891 c0 -490 1 -891 3 -891 9 0 95 48 142 80 l55 37 0 747 c0 410
2 746 5 746 12 -1 105 -142 141 -216 111 -228 119 -510 20 -744 -17 -41 -30
-74 -28 -75 2 -2 144 -84 159 -92 17 -9 99 197 112 281 4 21 9 43 13 49 10 17
12 286 3 342 -18 98 -21 111 -46 190 -136 420 -514 717 -965 760 -32 3 -48 1
-51 -8z"/>
</g>
</svg>
